<svg data-v-423bf9ae="" xmlns="http://www.w3.org/2000/svg" viewBox="0 0 224 90" class="iconLeft"><!----><!----><!----><g data-v-423bf9ae="" id="a7855bdd-d271-4167-bb36-5b0eeeebbeb5" fill="black" transform="matrix(5.295675234247834,0,0,5.295675234247834,68.31261990477982,-3.5348642735417357)"><path d="M3.23 9.52L4.54 9.55L4.54 9.55Q5.22 6.45 5.22 4.90L5.22 4.90L5.22 4.54L5.22 4.54Q5.22 4.30 5.34 4.18L5.34 4.18L5.34 4.18Q5.46 4.06 5.59 4.04L5.59 4.04L5.59 4.04Q5.73 4.02 6.13 4.02L6.13 4.02L6.13 4.02Q6.52 4.02 6.96 4.31L6.96 4.31L6.96 4.31Q7.41 4.61 7.41 5.11L7.41 5.11L7.41 5.11Q7.41 5.21 7.28 6.33L7.28 6.33L7.28 6.33Q7.15 7.45 7.11 9.20L7.11 9.20L7.11 9.20Q7.59 9.00 7.88 8.79L7.88 8.79L7.88 8.79Q8.16 8.57 8.26 8.57L8.26 8.57L8.26 8.57Q8.41 8.57 8.41 8.86L8.41 8.86L8.41 8.86Q8.41 9.14 7.98 9.58L7.98 9.58L7.98 9.58Q7.55 10.02 7.11 10.30L7.11 10.30L7.11 10.30Q7.11 10.61 7.14 11.28L7.14 11.28L7.14 11.28Q7.18 11.26 7.26 11.26L7.26 11.26L7.26 11.26Q7.34 11.26 7.41 11.30L7.41 11.30L7.41 11.30Q7.49 11.34 7.55 11.40L7.55 11.40L7.55 11.40Q7.62 11.45 7.70 11.56L7.70 11.56L7.70 11.56Q7.78 11.66 7.83 11.72L7.83 11.72L7.83 11.72Q7.87 11.77 7.94 11.88L7.94 11.88L7.94 11.88Q8.01 11.98 8.02 12.00L8.02 12.00L8.02 12.00Q8.27 12.38 8.27 12.59L8.27 12.59L8.27 12.59Q8.27 12.81 8.19 13.09L8.19 13.09L8.19 13.09Q7.87 13.92 7.76 14.53L7.76 14.53L7.76 14.53Q7.70 14.83 7.42 14.83L7.42 14.83L7.42 14.83Q7.11 14.83 6.99 14.66L6.99 14.66L6.99 14.66Q6.87 14.50 6.81 14.41L6.81 14.41L6.81 14.41Q6.75 14.31 6.70 14.13L6.70 14.13L6.70 14.13Q6.65 13.94 6.62 13.84L6.62 13.84L6.62 13.84Q6.59 13.73 6.57 13.51L6.57 13.51L6.57 13.51Q6.52 13.22 6.51 12.92L6.51 12.92L6.50 12.70L6.50 12.70Q6.44 12.03 6.36 10.65L6.36 10.65L6.36 10.65Q5.99 10.78 5.24 10.81L5.24 10.81L5.24 10.81Q5.01 11.82 4.78 12.66L4.78 12.66L4.78 12.66Q4.55 13.51 4.03 14.01L4.03 14.01L4.03 14.01Q3.50 14.52 2.74 14.52L2.74 14.52L2.74 14.52Q2.52 14.52 2.21 14.45L2.21 14.45L2.21 14.45Q0.41 13.96-0.25 12.17L-0.25 12.17L-0.25 12.17Q-0.42 11.70-0.42 11.35L-0.42 11.35L-0.42 11.35Q-0.42 10.51 0.28 10.21L0.28 10.21L0.28 10.21Q1.79 9.52 3.23 9.52L3.23 9.52ZM6.30 9.41L6.30 9.41L6.30 9.41Q6.24 8.18 6.19 5.66L6.19 5.66L6.19 5.66Q6.08 6.30 5.84 7.59L5.84 7.59L5.84 7.59Q5.61 8.88 5.50 9.52L5.50 9.52L5.50 9.52Q6.03 9.46 6.30 9.41ZM4.21 10.82L4.21 10.82L3.32 10.82L3.32 10.82Q1.61 10.82 0.59 11.06L0.59 11.06L0.59 11.06Q0.01 11.17 0.01 11.48L0.01 11.48L0.01 11.48Q0.01 11.72 0.39 12.10L0.39 12.10L0.39 12.10Q0.77 12.47 1.37 12.68L1.37 12.68L1.37 12.68Q1.97 12.88 2.38 12.88L2.38 12.88L2.38 12.88Q2.79 12.88 3.06 12.74L3.06 12.74L3.06 12.74Q3.33 12.60 3.49 12.45L3.49 12.45L3.49 12.45Q3.65 12.29 3.81 11.94L3.81 11.94L3.81 11.94Q4.00 11.51 4.21 10.82ZM13.86 11.14L13.76 11.75L13.80 12.47L13.80 12.47Q13.80 13.24 13.40 13.24L13.40 13.24L13.40 13.24Q13.08 13.24 12.84 12.91L12.84 12.91L12.84 12.91Q12.60 12.57 12.47 12.30L12.47 12.30L12.47 12.30Q12.35 12.03 12.22 11.78L12.22 11.78L12.22 11.78Q12.10 11.54 12.00 11.20L12.00 11.20L12.00 11.20Q11.98 11.24 11.91 11.49L11.91 11.49L11.80 11.87L11.80 11.87Q11.63 12.49 11.54 12.69L11.54 12.69L11.54 12.69Q11.45 12.89 11.35 13.14L11.35 13.14L11.35 13.14Q11.24 13.38 11.13 13.53L11.13 13.53L11.13 13.53Q11.02 13.68 10.89 13.82L10.89 13.82L10.89 13.82Q10.64 14.11 10.28 14.11L10.28 14.11L10.28 14.11Q9.93 14.11 9.59 13.71L9.59 13.71L9.59 13.71Q9.02 13.03 8.75 12.03L8.75 12.03L8.75 12.03Q8.62 11.61 8.62 11.06L8.62 11.06L8.62 11.06Q8.62 10.51 8.96 9.85L8.96 9.85L8.96 9.85Q9.30 9.18 9.97 8.39L9.97 8.39L9.97 8.39Q10.64 7.59 11.21 7.59L11.21 7.59L11.21 7.59Q11.52 7.59 11.91 7.88L11.91 7.88L11.91 7.88Q12.00 7.13 12.19 5.74L12.19 5.74L12.19 5.74Q12.39 4.35 12.43 3.93L12.43 3.93L12.43 3.93Q12.47 3.50 12.73 3.50L12.73 3.50L12.73 3.50Q12.99 3.50 13.11 3.77L13.11 3.77L13.11 3.77Q13.23 4.05 13.23 4.31L13.23 4.31L13.23 4.31Q13.23 4.58 13.19 4.80L13.19 4.80L13.19 4.80Q12.80 8.81 12.80 11.31L12.80 11.31L12.80 11.31Q12.80 11.69 13.01 11.69L13.01 11.69L13.01 11.69Q13.22 11.69 13.46 11.36L13.46 11.36L13.46 11.36Q13.71 11.03 13.78 11.03L13.78 11.03L13.78 11.03Q13.86 11.03 13.86 11.14L13.86 11.14ZM11.55 9.07L11.55 9.07L11.55 9.07Q11.55 8.90 11.39 8.90L11.39 8.90L11.39 8.90Q11.23 8.90 11.00 9.04L11.00 9.04L11.00 9.04Q10.28 9.45 9.81 10.30L9.81 10.30L9.81 10.30Q9.34 11.16 9.34 12.01L9.34 12.01L9.34 12.01Q9.34 12.53 9.66 12.53L9.66 12.53L9.66 12.53Q9.79 12.53 9.94 12.38L9.94 12.38L9.94 12.38Q10.72 11.55 11.49 9.32L11.49 9.32L11.49 9.32Q11.55 9.18 11.55 9.07ZM18.54 11.90L18.54 11.90L18.65 9.00L18.65 9.00Q18.65 8.83 18.62 8.83L18.62 8.83L18.62 8.83Q18.56 8.83 18.49 9.06L18.49 9.06L18.49 9.06Q18.24 9.70 17.32 13.08L17.32 13.08L17.32 13.08Q17.18 13.57 17.02 13.57L17.02 13.57L17.02 13.57Q16.95 13.57 16.77 13.45L16.77 13.45L16.77 13.45Q16.06 12.94 16.06 12.18L16.06 12.18L16.06 12.18Q16.06 11.58 16.25 10.54L16.25 10.54L16.25 10.54Q16.48 9.25 16.48 9.15L16.48 9.15L16.48 9.15Q16.48 9.04 16.44 9.04L16.44 9.04L16.44 9.04Q16.41 9.04 16.34 9.18L16.34 9.18L16.34 9.18Q15.62 10.89 15.47 13.26L15.47 13.26L15.47 13.26Q15.44 13.68 15.19 13.68L15.19 13.68L15.19 13.68Q14.85 13.68 14.59 13.29L14.59 13.29L14.59 13.29Q14.10 12.59 14.10 11.72L14.10 11.72L14.10 11.72Q14.10 11.17 14.23 10.33L14.23 10.33L14.23 10.33Q14.36 9.49 14.39 9.31L14.39 9.31L14.39 9.31Q14.63 7.84 14.83 7.84L14.83 7.84L14.83 7.84Q14.98 7.84 15.06 8.24L15.06 8.24L15.06 8.24Q15.15 8.64 15.15 8.82L15.15 8.82L15.15 8.82Q15.15 9.00 15.20 9.00L15.20 9.00L15.20 9.00Q15.36 9.00 15.51 8.67L15.51 8.67L15.51 8.67Q15.67 8.34 15.89 8.02L15.89 8.02L15.89 8.02Q16.11 7.69 16.44 7.69L16.44 7.69L16.44 7.69Q16.77 7.69 17.05 7.93L17.05 7.93L17.05 7.93Q17.33 8.18 17.40 8.53L17.40 8.53L17.40 8.53Q17.57 8.29 17.96 7.87L17.96 7.87L17.96 7.87Q18.17 7.57 18.39 7.57L18.39 7.57L18.39 7.57Q18.61 7.57 19.03 7.78L19.03 7.78L19.03 7.78Q19.60 8.08 19.60 9.32L19.60 9.32L19.60 9.32Q19.60 10.57 19.52 11.47L19.52 11.47L19.52 11.56L19.52 11.56Q19.52 11.77 19.60 11.77L19.60 11.77L19.60 11.77Q19.73 11.77 20.22 11.07L20.22 11.07L20.22 11.07Q20.71 10.36 20.82 10.36L20.82 10.36L20.82 10.36Q21.01 10.36 21.01 11.36L21.01 11.36L21.01 11.36Q21.01 12.36 20.30 13.36L20.30 13.36L20.30 13.36Q19.96 13.82 19.73 13.82L19.73 13.82L19.57 13.78L19.57 13.78Q19.01 13.48 18.77 13.10L18.77 13.10L18.77 13.10Q18.54 12.73 18.54 11.90ZM23.88 4.10L23.88 4.10L23.88 4.10Q23.88 4.56 23.49 5.38L23.49 5.38L23.49 5.38Q23.10 6.20 22.75 6.57L22.75 6.57L22.75 6.57Q22.69 6.65 22.58 6.65L22.58 6.65L22.58 6.65Q22.23 6.65 22.23 6.09L22.23 6.09L22.23 6.09Q22.23 5.53 22.72 4.52L22.72 4.52L22.72 4.52Q22.82 4.31 22.85 4.09L22.85 4.09L22.85 4.09Q22.88 3.86 22.88 3.83L22.88 3.83L22.88 3.83Q22.89 3.79 22.90 3.77L22.90 3.77L22.90 3.77Q22.90 3.75 22.91 3.72L22.91 3.72L22.91 3.72Q22.92 3.68 22.93 3.66L22.93 3.66L22.93 3.66Q22.93 3.64 22.95 3.62L22.95 3.62L22.95 3.62Q22.96 3.60 22.97 3.58L22.97 3.58L22.97 3.58Q23.02 3.56 23.20 3.56L23.20 3.56L23.20 3.56Q23.38 3.56 23.63 3.71L23.63 3.71L23.63 3.71Q23.88 3.86 23.88 4.10ZM24.02 10.32L24.02 10.32L24.02 10.32Q24.18 10.08 24.24 10.08L24.24 10.08L24.24 10.08Q24.30 10.08 24.34 10.43L24.34 10.43L24.34 10.43Q24.37 10.78 24.37 11.36L24.37 11.36L24.37 11.36Q24.37 11.94 24.10 12.61L24.10 12.61L24.10 12.61Q23.83 13.27 23.31 13.68L23.31 13.68L23.31 13.68Q23.02 13.90 22.77 13.90L22.77 13.90L22.77 13.90Q22.53 13.90 22.36 13.80L22.36 13.80L22.36 13.80Q22.20 13.69 22.08 13.45L22.08 13.45L22.08 13.45Q21.87 13.12 21.66 12.59L21.66 12.59L21.66 12.59Q21.46 12.05 21.46 11.44L21.46 11.44L21.46 11.44Q21.46 10.82 21.56 10.19L21.56 10.19L21.56 10.19Q21.66 9.56 21.66 9.34L21.66 9.34L21.66 9.34Q21.66 9.13 21.43 8.79L21.43 8.79L21.43 8.79Q21.21 8.44 21.21 8.37L21.21 8.37L21.21 8.37Q21.21 8.30 21.26 8.22L21.26 8.22L21.26 8.22Q21.31 8.15 21.38 8.07L21.38 8.07L21.38 8.07Q21.46 7.99 21.54 7.94L21.54 7.94L21.54 7.94Q21.62 7.88 21.71 7.80L21.71 7.80L21.71 7.80Q22.04 7.53 22.30 7.53L22.30 7.53L22.30 7.53Q22.57 7.53 22.77 7.71L22.77 7.71L22.77 7.71Q22.97 7.90 22.97 8.34L22.97 8.34L22.97 8.34Q22.96 8.79 22.75 10.04L22.75 10.04L22.75 10.04Q22.48 11.63 22.48 11.87L22.48 11.87L22.48 11.87Q22.48 12.11 22.61 12.11L22.61 12.11L22.61 12.11Q22.89 12.11 24.02 10.32ZM29.29 10.63L29.29 10.63L29.29 10.63Q29.29 11.31 29.22 11.82L29.22 11.82L29.22 11.82Q29.15 12.32 28.71 13.17L28.71 13.17L28.71 13.17Q28.28 14.01 27.86 14.01L27.86 14.01L27.86 14.01Q27.68 14.01 27.51 13.82L27.51 13.82L27.51 13.82Q26.68 12.82 26.68 11.93L26.68 11.93L26.68 11.93Q26.68 11.66 26.87 10.71L26.87 10.71L26.87 10.71Q27.12 9.28 27.12 9.12L27.12 9.12L27.12 9.12Q27.12 8.96 27.07 8.96L27.07 8.96L27.07 8.96Q27.02 8.96 26.96 9.07L26.96 9.07L26.96 9.07Q26.60 9.72 26.38 10.54L26.38 10.54L26.38 10.54Q26.15 11.35 26.08 11.91L26.08 11.91L26.08 11.91Q26.01 12.47 25.93 13.48L25.93 13.48L25.93 13.48Q25.93 13.83 25.75 13.83L25.75 13.83L25.75 13.83Q25.66 13.83 25.47 13.68L25.47 13.68L25.47 13.68Q24.71 13.03 24.71 11.91L24.71 11.91L24.71 11.91Q24.71 11.44 24.80 10.60L24.80 10.60L24.80 10.60Q24.89 9.76 24.91 9.44L24.91 9.44L24.91 9.44Q25.06 7.49 25.28 7.49L25.28 7.49L25.28 7.49Q25.41 7.49 25.47 7.76L25.47 7.76L25.47 7.76Q25.52 8.04 25.52 8.38L25.52 8.38L25.52 8.38Q25.52 8.72 25.54 9.00L25.54 9.00L25.54 9.00Q25.56 9.28 25.65 9.28L25.65 9.28L25.65 9.28Q25.73 9.28 25.89 8.83L25.89 8.83L25.89 8.83Q26.04 8.39 26.34 7.93L26.34 7.93L26.34 7.93Q26.64 7.48 26.99 7.48L26.99 7.48L26.99 7.48Q27.34 7.48 27.61 7.63L27.61 7.63L27.61 7.63Q28.21 7.94 28.21 8.92L28.21 8.92L28.21 8.92Q28.21 9.25 28.13 9.74L28.13 9.74L28.13 9.74Q28.04 10.23 27.98 10.81L27.98 10.81L27.98 10.81Q27.92 11.40 27.92 11.47L27.92 11.47L27.92 11.47Q27.92 11.55 27.97 11.55L27.97 11.55L27.97 11.55Q28.08 11.55 28.54 10.99L28.54 10.99L28.54 10.99Q28.99 10.43 29.16 10.43L29.16 10.43L29.16 10.43Q29.29 10.43 29.29 10.63Z"></path></g><!----><g data-v-423bf9ae="" id="1dac6a02-c4b4-4c8a-9269-4ddac478680d" transform="matrix(2.8125,0,0,2.8125,-21.194407999515533,0)" stroke="none" fill="black"><path d="M18.396 26.495L7.807 15.905 18.432 5.28l.707.707-9.918 9.918 9.882 9.883z"></path><path d="M23.194 1v4.194H19V1h4.194m1-1H18v6.194h6.194V0zM23.194 26.806V31H19v-4.194h4.194m1-1H18V32h6.194v-6.194z"></path></g><!----></svg>